<?xml version="1.0" encoding="UTF-8" standalone="no"?>
<svg
   xmlns:ns="http://ns.adobe.com/SaveForWeb/1.0/"
   xmlns:dc="http://purl.org/dc/elements/1.1/"
   xmlns:cc="http://creativecommons.org/ns#"
   xmlns:rdf="http://www.w3.org/1999/02/22-rdf-syntax-ns#"
   xmlns:svg="http://www.w3.org/2000/svg"
   xmlns="http://www.w3.org/2000/svg"
   xmlns:sodipodi="http://sodipodi.sourceforge.net/DTD/sodipodi-0.dtd"
   xmlns:inkscape="http://www.inkscape.org/namespaces/inkscape"
   id="svg16"
   xml:space="preserve"
   enable-background="new 0 0 64 64"
   viewBox="0 0 49.987568 44.986329"
   y="0px"
   x="0px"
   version="1.1"
   sodipodi:docname="mta-status.svg"
   width="49.987568"
   height="44.986328"
   inkscape:version="0.92.2 5c3e80d, 2017-08-06"><sodipodi:namedview
     pagecolor="#ffffff"
     bordercolor="#666666"
     borderopacity="1"
     objecttolerance="10"
     gridtolerance="10"
     guidetolerance="10"
     inkscape:pageopacity="0"
     inkscape:pageshadow="2"
     inkscape:window-width="1204"
     inkscape:window-height="740"
     id="namedview9"
     showgrid="false"
     inkscape:zoom="5.9"
     inkscape:cx="23.632491"
     inkscape:cy="30.830128"
     inkscape:window-x="289"
     inkscape:window-y="195"
     inkscape:window-maximized="0"
     inkscape:current-layer="g10" /><defs
     id="defs20" /><metadata
     id="metadata2"><ns:sfw><ns:slices /><ns:sliceSourceBounds
         bottomLeftOrigin="true"
         height="16384"
         width="16389"
         x="-8165"
         y="-8160" /></ns:sfw><rdf:RDF><cc:Work
         rdf:about=""><dc:format>image/svg+xml</dc:format><dc:type
           rdf:resource="http://purl.org/dc/dcmitype/StillImage" /><dc:title /></cc:Work></rdf:RDF></metadata><g
     id="g10"
     transform="translate(-7.0144311,-9.0136719)"><g
       id="g8"><path
         style="color:#000000;font-style:normal;font-variant:normal;font-weight:normal;font-stretch:normal;font-size:medium;line-height:normal;font-family:sans-serif;font-variant-ligatures:normal;font-variant-position:normal;font-variant-caps:normal;font-variant-numeric:normal;font-variant-alternates:normal;font-feature-settings:normal;text-indent:0;text-align:start;text-decoration:none;text-decoration-line:none;text-decoration-style:solid;text-decoration-color:#000000;letter-spacing:normal;word-spacing:normal;text-transform:none;writing-mode:lr-tb;direction:ltr;text-orientation:mixed;dominant-baseline:auto;baseline-shift:baseline;text-anchor:start;white-space:normal;shape-padding:0;clip-rule:nonzero;display:inline;overflow:visible;visibility:visible;opacity:1;isolation:auto;mix-blend-mode:normal;color-interpolation:sRGB;color-interpolation-filters:linearRGB;solid-color:#000000;solid-opacity:1;vector-effect:none;fill-opacity:1;fill-rule:nonzero;stroke:none;stroke-width:1;stroke-linecap:butt;stroke-linejoin:miter;stroke-miterlimit:4;stroke-dasharray:none;stroke-dashoffset:0;stroke-opacity:1;color-rendering:auto;image-rendering:auto;shape-rendering:auto;text-rendering:auto;enable-background:accumulate"
         d="m 32,9.0136719 c -6.402834,1.247e-4 -12.805362,2.4367311 -17.677734,7.3085941 -9.7437799,9.743779 -9.7437799,25.611689 0,35.355468 0.194205,0.194205 0.454031,0.292969 0.707031,0.292969 0.255604,0 0.512205,-0.100111 0.705078,-0.291015 l 0.002,-0.002 c 0.386584,-0.386583 0.386584,-1.027478 0,-1.414062 -8.9702691,-8.971248 -8.9712016,-23.557121 0,-32.527344 8.971259,-8.9712587 23.555075,-8.9712901 32.527344,0 4.346271,4.347251 6.738281,10.117444 6.738281,16.265625 0,6.147214 -2.391179,11.916575 -6.738281,16.261719 -0.386584,0.386584 -0.386584,1.027479 0,1.414062 0.386584,0.386584 1.027479,0.386584 1.414062,0 C 54.396551,46.958919 57.002,40.675746 57.002,34.001907 V 34 C 57.000933,27.325229 54.396529,21.041061 49.677734,16.322266 44.805355,11.449886 38.402834,9.0135472 32,9.0136719 Z"
         id="path4"
         inkscape:connector-curvature="0"
         sodipodi:nodetypes="scsscccccscccscss" /><path
         style="color:#000000;font-style:normal;font-variant:normal;font-weight:normal;font-stretch:normal;font-size:medium;line-height:normal;font-family:sans-serif;font-variant-ligatures:normal;font-variant-position:normal;font-variant-caps:normal;font-variant-numeric:normal;font-variant-alternates:normal;font-feature-settings:normal;text-indent:0;text-align:start;text-decoration:none;text-decoration-line:none;text-decoration-style:solid;text-decoration-color:#000000;letter-spacing:normal;word-spacing:normal;text-transform:none;writing-mode:lr-tb;direction:ltr;text-orientation:mixed;dominant-baseline:auto;baseline-shift:baseline;text-anchor:start;white-space:normal;shape-padding:0;clip-rule:nonzero;display:inline;overflow:visible;visibility:visible;opacity:1;isolation:auto;mix-blend-mode:normal;color-interpolation:sRGB;color-interpolation-filters:linearRGB;solid-color:#000000;solid-opacity:1;vector-effect:none;fill-opacity:1;fill-rule:nonzero;stroke:none;stroke-width:1;stroke-linecap:butt;stroke-linejoin:miter;stroke-miterlimit:4;stroke-dasharray:none;stroke-dashoffset:0;stroke-opacity:1;color-rendering:auto;image-rendering:auto;shape-rendering:auto;text-rendering:auto;enable-background:accumulate"
         d="M 18.998047,23.164062 V 42 c 0,2.752262 2.247738,5 5,5 h 2.585937 l -5.291015,5.292969 c -0.386584,0.386583 -0.386584,1.027479 0,1.414062 C 21.485971,53.900034 21.744396,54 22,54 c 0.255604,0 0.512205,-0.100111 0.705078,-0.291016 h 0.002 L 29.416016,47 h 5.169922 l 6.708984,6.707031 C 41.487803,53.900844 41.745248,54 42,54 c 0.255604,0 0.512205,-0.100111 0.705078,-0.291016 h 0.002 v -0.002 c 0.386584,-0.386583 0.386584,-1.027479 0,-1.414062 L 37.414062,47 H 40 c 2.752262,0 5,-2.247738 5,-5 V 23.166016 c -4.466781,2.424831 -8.519518,4.512404 -13.007812,7.005859 -2.039201,-1.118501 -4.235947,-2.298238 -6.22461,-3.369141 -2.256757,-1.212426 -4.510092,-2.431244 -6.769531,-3.638672 z m 2,3.66211 c 3.67811,1.898254 7.293513,3.918378 10.996094,5.767578 C 35.673026,30.691709 39.33518,28.757168 43,26.828125 V 35 H 20.998047 Z m 0,10.173828 H 43 v 5 c 0,1.658843 -1.341157,3 -3,3 H 23.998047 c -1.658843,0 -3,-1.341157 -3,-3 z"
         id="path6"
         inkscape:connector-curvature="0"
         sodipodi:nodetypes="csscccscccccscccccssccccccccccccssssc" /></g></g></svg>